# xmcd CD database file generated by Grip 3.3.1
# 
# Track frame offsets:
#       150
#       27706
#       61375
#       110128
#       139388
#       159302
#       197365
#       208562
#       249255
# 
# Disc length: 3500 seconds
# 
# Revision: 2
# Processed by: cddbd v1.5.2PL0 Copyright (c) Steve Scherf et al.
# Submitted via: Grip 3.3.1
# 
DISCID=7f0daa09
DTITLE=Deva Premal - into silence
DYEAR=2008
DGENRE=New Age
TTITLE0=Aad Guray (Dakshina)
TTITLE1=Om Namo (The Essence)
TTITLE2=GATÉ GATÉ (Love is Space)
TTITLE3=Om Ram Ramaya (Embrace)
TTITLE4=Om Hraum Mitraya (Dakshina)
TTITLE5=Om Mani Padme Hum (Love is Space)
TTITLE6=Om Asatoma (The Essence)
TTITLE7=Guru Rinpoche Mantra (Dakshina)
TTITLE8=Moola Mantra (Incantation)
EXTD=YEAR: 2008
EXTT0=
EXTT1=
EXTT2=
EXTT3=
EXTT4=
EXTT5=
EXTT6=
EXTT7=
EXTT8=
PLAYORDER=
